<?xml version="1.0" encoding="utf-8"?>
<!-- Generator: Adobe Illustrator 22.1.0, SVG Export Plug-In . SVG Version: 6.00 Build 0)  -->
<svg version="1.1" id="Layer_1" xmlns="http://www.w3.org/2000/svg" xmlns:xlink="http://www.w3.org/1999/xlink" x="0px" y="0px"
	 viewBox="0 0 322.7 291" style="enable-background:new 0 0 322.7 291;" xml:space="preserve">
<style type="text/css">
	.st0{fill:#CC6634;stroke:#CC6634;stroke-width:1.5406;stroke-miterlimit:10;}
	.st1{fill:none;stroke:#CC6634;stroke-width:7.9244;stroke-linecap:round;stroke-linejoin:round;stroke-miterlimit:10;}
	.st2{fill:none;stroke:#CC6634;stroke-width:4.9528;stroke-linecap:round;stroke-linejoin:round;stroke-miterlimit:10;}
	.st3{fill:#CC6634;}
	.st4{fill:none;stroke:#CC6634;stroke-width:8.715;stroke-miterlimit:10;}
	.st5{fill:none;stroke:#CC6634;stroke-width:6.972;stroke-miterlimit:10;}
	.st6{fill:#CC6634;stroke:#CC6634;stroke-width:3.486;stroke-miterlimit:10;}
	.st7{fill:none;stroke:#CC6634;stroke-width:5.4287;stroke-linecap:round;stroke-linejoin:round;stroke-miterlimit:10;}
	.st8{fill:#CC6634;stroke:#CC6634;stroke-width:1.7064;stroke-linecap:round;stroke-linejoin:round;stroke-miterlimit:10;}
	.st9{fill:#CC6634;stroke:#CC6634;stroke-width:1.3046;stroke-miterlimit:10;}
</style>
<g>
	<path class="st7" d="M262.4,66.6c-0.6,3.2,0,9.7,3.6,13.2c1,0.9,0,0,0,0c14.7,8.9,19.9,22.9,20.5,39.2c0.2,5.7,0,11.1-3.5,16.3
		c-3,4.5-1.4,8.7,2.4,10.9c5.1,2.9,7.7,8.6,6.3,14.1c-1.1,4.3-6.9,8.6-12,8.9c-0.7,0-1.4,0-2.1,0"/>
	<path class="st7" d="M262.4,66.6c-3.9,7.2-8.1,4.6-10.6,3.3c-8.5-5.2-17.7-8.9-28.2-7.6c-5.7,0.7-12.3,4.8-16.5,8.6
		c-5,4.7-9.3,5.5-14.9,9.2c-13.3,9-19.4,22-19.8,37.7c-0.1,5.2-1.3,10.5,2.8,15.4c1.7,2,0.9,6.1,1.3,9.2c0.3,1.8-1.1,2.1-2.1,2.6
		c-4.9,2.5-8,6.4-7.2,12c0.9,6.6,4.8,9.9,12.5,10.9c2.7,0.3,3.5,2.3,4.1,3.8c4.6,11.8,13.3,18.7,24.6,23.7c11.1,4.9,22.1,5.3,33.6,3
		c18.5-3.7,29.9-15.6,34.7-27.2c0.6-1.6,0.3-2.8,0.4-4.2"/>
	<path class="st7" d="M75.1,92.8C60.1,96,44.4,110,42,128.4c-0.9,6.9-0.8,13.6-0.5,20.4c0.1,1.8,0.2,2.9-1.9,3.5
		c-8.5,2.4-11.3,9.8-6.8,17.5c2.6,4.5,6.9,6.5,12,4.6c2.4-0.9,3.4,0.9,3.6,1.5c3.8,11,12.1,17.4,22.1,22.3c0.7,0.3,1.1,1.3,1.6,2"/>
	<path class="st7" d="M112.3,92.3c3,1.6,5.9,3.1,8.9,4.7c14.5,7.9,20.9,20.8,22.5,36.6c0.5,5.1,1.2,10.1,0,15.2
		c-0.6,2.5,0.8,3.9,3.6,3.7c3-0.2,4.5,1.5,5.8,4.1c3.4,6.9-0.7,17.2-7.9,18.8c-3,0.6-6.2,0.1-6.8-4.1"/>
	<path class="st7" d="M206.4,209.6c3.1,8.9,11.7,14.8,20.9,15.3c12.2,0.6,21-4.2,26.2-15.3"/>
	<path class="st7" d="M207.2,89.7c-16.2,7.5-25,20.7-28.5,37.7c-0.4,2.1-2.2,4.4-3.4,5.9"/>
	<path class="st7" d="M74.6,201.7c1.4,8.7,11.3,14.8,18.3,14.8c7,0,16.9-6,18.3-14.8"/>
	<path class="st7" d="M203.8,82.3c1,7,7.1,9.5,12.1,12.5c9.2,5.4,19.2,7.5,29.8,5.3c3.3-0.7,5.4-2.4,3.7-6.3"/>
	<path class="st7" d="M255.6,92.3c5.9,4.6,12.1,8.7,16.3,15.2c3.9,6.1,6.2,12.8,7.2,19.9c0.4,2.5,2.1,6.3,4,8"/>
	<path class="st7" d="M137.5,228.9c-2-10.7-9.4-17.5-17.2-24.2c-4.9-4.2-9.8-4.2-15.8-3.3c-8.1,1.3-16.3,1.2-24.6-0.6
		c-6.2-1.4-11.7,1.5-16.9,5.9c-7.3,6.1-12.7,12.8-14.5,22.2"/>
	<path class="st7" d="M112.3,78.1c-0.2,5.1-2.1,6.1-7.3,4.2c-7.3-2.7-14.5-3.8-21.5,0.9c-0.8,0.5-1.8,1-2.5,1.7
		c-6.7,6.1-5.7,11.3,2.6,15.2c5.7,2.7,11.4,2.6,17.3,0.6c1.5-0.5,2.9-1.5,3.5-2.2c1.4-1.8,2.3-3.7,4.3-4.8
		C113.4,91.3,114.2,83.8,112.3,78.1"/>
	<path class="st7" d="M213.7,199.1c-1.2,6.2-3.7,8.3-9.9,10c-9.8,2.8-18.5,8-26.7,14c-1.8,1.3-4.4,3.7-4.4,3.7"/>
	<path class="st7" d="M286.5,226.8c-9.5-8.3-20.1-14.5-32.4-18c-4.2-1.2-9.4-2.9-8.9-9.3"/>
	<path class="st7" d="M139,174.5c-3.8,4.8-5.4,11-10.4,15.3c-4.3,3.7-11.6,7.7-15.8,11.4"/>
	<path class="st7" d="M266.1,79.8c-2.7,5.7-7.7,10.5-14.1,12.5c-4.4,1.3-6.9,0.1-9.4-4.7"/>
	<path class="st7" d="M237.3,179.2c-4.5,3.2-9.2,3.6-14.1,1"/>
	<path class="st7" d="M98.2,184.4c-4.4,3.5-10.2,2.4-13.1,0"/>
	<path class="st7" d="M76.7,139.1c-3.5-3.8-8.7-3.5-10.5,0"/>
	<path class="st7" d="M118.6,139.1c-3.1-2.6-6.4-2.6-9.9-1"/>
	<path class="st7" d="M198.6,131.6c5.2-1.7,10.5-1.7,15.7,0"/>
	<path class="st7" d="M245.7,131.6c5.2-1.7,10.5-1.7,15.7,0"/>
	<g>
		<path class="st3" d="M72.1,157.3c-2.2,0-4-1.8-4-4s1.8-4,4-4c2.2,0,4,1.8,4,4S74.3,157.3,72.1,157.3z"/>
		<path class="st3" d="M72.1,150.7c1.4,0,2.5,1.1,2.5,2.5c0,1.4-1.1,2.5-2.5,2.5s-2.5-1.1-2.5-2.5C69.6,151.9,70.7,150.7,72.1,150.7
			 M72.1,147.7c-3.1,0-5.5,2.5-5.5,5.5s2.5,5.5,5.5,5.5s5.5-2.5,5.5-5.5S75.2,147.7,72.1,147.7L72.1,147.7z"/>
	</g>
	<g>
		<path class="st3" d="M112.9,157.3c-2.2,0-4-1.8-4-4s1.8-4,4-4c2.2,0,4,1.8,4,4S115.1,157.3,112.9,157.3z"/>
		<path class="st3" d="M112.9,150.7c1.4,0,2.5,1.1,2.5,2.5c0,1.4-1.1,2.5-2.5,2.5c-1.4,0-2.5-1.1-2.5-2.5
			C110.4,151.9,111.5,150.7,112.9,150.7 M112.9,147.7c-3.1,0-5.5,2.5-5.5,5.5s2.5,5.5,5.5,5.5s5.5-2.5,5.5-5.5
			S116,147.7,112.9,147.7L112.9,147.7z"/>
	</g>
	<g>
		<path class="st3" d="M206.6,151.6c-2.5,0-4.5-2-4.5-4.5s2-4.5,4.5-4.5s4.5,2,4.5,4.5S209.1,151.6,206.6,151.6z"/>
		<path class="st3" d="M206.6,144.1c1.6,0,3,1.3,3,3s-1.3,3-3,3c-1.6,0-3-1.3-3-3S205,144.1,206.6,144.1 M206.6,141.1
			c-3.3,0-6,2.7-6,6s2.7,6,6,6c3.3,0,6-2.7,6-6S209.9,141.1,206.6,141.1L206.6,141.1z"/>
	</g>
	<g>
		<path class="st3" d="M254.6,151.6c-2.5,0-4.5-2-4.5-4.5s2-4.5,4.5-4.5c2.5,0,4.5,2,4.5,4.5S257.1,151.6,254.6,151.6z"/>
		<path class="st3" d="M254.6,144.1c1.6,0,3,1.3,3,3s-1.3,3-3,3c-1.6,0-3-1.3-3-3S252.9,144.1,254.6,144.1 M254.6,141.1
			c-3.3,0-6,2.7-6,6s2.7,6,6,6c3.3,0,6-2.7,6-6S257.9,141.1,254.6,141.1L254.6,141.1z"/>
	</g>
</g>
</svg>
